<!DOCTYPE svg PUBLIC "-//W3C//DTD SVG 1.1//EN" "http://www.w3.org/Graphics/SVG/1.1/DTD/svg11.dtd">
<!-- Uploaded to: SVG Repo, www.svgrepo.com, Transformed by: SVG Repo Mixer Tools -->
<svg width="800px" height="800px" viewBox="-4.8 -4.8 57.60 57.60" xmlns="http://www.w3.org/2000/svg" fill="#000000">
<g id="SVGRepo_bgCarrier" stroke-width="0">
<path transform="translate(-4.8, -4.8), scale(1.7999999999999998)" d="M16,31.024939571108135C18.763676965687797,31.117434769923776,20.40833548449983,27.97168723289602,22.686394948951666,26.404233626278376C24.873814527426823,24.899146177522088,28.02626831682298,24.41119211037156,29.125084041963923,21.994025040663068C30.223792688478593,19.577093521760222,28.646297997844155,16.86341054730171,28.21436729649097,14.243839107882536C27.792894018451136,11.687689803902568,27.931411267352313,9.032078179502854,26.619497263279012,6.798153240241179C25.15211185903278,4.299491864665924,23.157350574918496,1.8997872183596616,20.415156822613348,0.9633567515309078C17.634366343572278,0.013745906472132585,14.3822798828846,0.3152156173269025,11.813490130806663,1.7420567630043315C9.412495356275514,3.075695739135532,8.9840418525302,6.2870078539842265,7.150064895649644,8.331487579394407C5.268391085635216,10.429138773961938,1.706722874514711,11.119975763767243,0.9629632999594158,13.83800051652836C0.22025765199888003,16.552173757765928,1.856343911889819,19.421451575532476,3.4880766603676,21.714003930552458C4.956196205028055,23.776682958537915,7.564063982681972,24.454609288127305,9.595179861070985,25.966094669618336C11.82285370905548,27.623851615829135,13.224741156775941,30.93205674809521,16,31.024939571108135" fill="#ff7800" strokewidth="0"/>
</g>
<g id="SVGRepo_tracerCarrier" stroke-linecap="round" stroke-linejoin="round"/>
<g id="SVGRepo_iconCarrier">
<defs>
<style>.a,.b{fill:none;stroke:#000000;stroke-linecap:round;stroke-linejoin:round;}.b{stroke-width:1.0303px;}</style>
</defs>
<circle class="a" cx="37.008" cy="8.3081" r="3.5988"/>
<path class="b" d="M16.3375,42.8042A20.3934,20.3934,0,1,1,34.09,6.2011"/>
<path class="a" d="M41.4009,31.8338l1.2212.7941"/>
<path class="a" d="M38.6039,36.64l1.1425.9849"/>
<path class="a" d="M34.31,40.3824l.7878,1.0242"/>
<path class="a" d="M29.0213,42.72l.4038,1.2532"/>
<path class="a" d="M23.7129,43.3369l-.0394,1.1942"/>
<path class="a" d="M18.1583,42.74l-.2757,1.1879"/>
<path class="a" d="M45.5,27.2641H40.0615l-4.9637-1.497.0788-4.097,4.8849-1.497H45.5"/>
<path class="a" d="M35.0978,25.7671,29.5827,23.64l5.5939-1.97"/>
</g>
</svg>